<mxfile host="65bd71144e">
    <diagram id="6YwQQIW8eCQRHDkm4CSs" name="Page-1">
        <mxGraphModel dx="736" dy="496" grid="1" gridSize="10" guides="1" tooltips="1" connect="1" arrows="1" fold="1" page="1" pageScale="1" pageWidth="827" pageHeight="1169" math="0" shadow="0">
            <root>
                <mxCell id="0"/>
                <mxCell id="1" parent="0"/>
                <mxCell id="DnkCzbvQFBXvj7n7dTfT-9" value="" style="edgeStyle=orthogonalEdgeStyle;rounded=0;orthogonalLoop=1;jettySize=auto;html=1;" parent="1" source="DnkCzbvQFBXvj7n7dTfT-1" target="DnkCzbvQFBXvj7n7dTfT-2" edge="1">
                    <mxGeometry relative="1" as="geometry"/>
                </mxCell>
                <mxCell id="DnkCzbvQFBXvj7n7dTfT-1" value="ChosenStringsArray" style="rounded=1;whiteSpace=wrap;html=1;" parent="1" vertex="1">
                    <mxGeometry x="330" y="10" width="120" height="60" as="geometry"/>
                </mxCell>
                <mxCell id="DnkCzbvQFBXvj7n7dTfT-8" value="" style="edgeStyle=orthogonalEdgeStyle;rounded=0;orthogonalLoop=1;jettySize=auto;html=1;" parent="1" source="DnkCzbvQFBXvj7n7dTfT-2" target="DnkCzbvQFBXvj7n7dTfT-3" edge="1">
                    <mxGeometry relative="1" as="geometry"/>
                </mxCell>
                <mxCell id="DnkCzbvQFBXvj7n7dTfT-2" value="string[] array1&amp;nbsp;&lt;br&gt;string[] array2&lt;br&gt;int count = 0" style="shape=parallelogram;perimeter=parallelogramPerimeter;whiteSpace=wrap;html=1;fixedSize=1;size=10;" parent="1" vertex="1">
                    <mxGeometry x="330" y="120" width="120" height="60" as="geometry"/>
                </mxCell>
                <mxCell id="DnkCzbvQFBXvj7n7dTfT-7" value="" style="edgeStyle=orthogonalEdgeStyle;rounded=0;orthogonalLoop=1;jettySize=auto;html=1;" parent="1" source="DnkCzbvQFBXvj7n7dTfT-3" target="DnkCzbvQFBXvj7n7dTfT-4" edge="1">
                    <mxGeometry relative="1" as="geometry"/>
                </mxCell>
                <mxCell id="2" style="edgeStyle=none;html=1;exitX=1;exitY=0.5;exitDx=0;exitDy=0;" edge="1" parent="1" source="DnkCzbvQFBXvj7n7dTfT-3">
                    <mxGeometry relative="1" as="geometry">
                        <mxPoint x="440" y="480" as="targetPoint"/>
                        <Array as="points">
                            <mxPoint x="570" y="250"/>
                            <mxPoint x="570" y="430"/>
                            <mxPoint x="440" y="430"/>
                        </Array>
                    </mxGeometry>
                </mxCell>
                <mxCell id="DnkCzbvQFBXvj7n7dTfT-3" value="for (int i = 0;&lt;br&gt;i &amp;lt; array1.Length;&lt;br&gt;i++)" style="shape=hexagon;perimeter=hexagonPerimeter2;whiteSpace=wrap;html=1;fixedSize=1;" parent="1" vertex="1">
                    <mxGeometry x="330" y="210" width="120" height="80" as="geometry"/>
                </mxCell>
                <mxCell id="B7fp_Nzf1htRCQnwWERk-2" value="" style="edgeStyle=orthogonalEdgeStyle;rounded=0;orthogonalLoop=1;jettySize=auto;html=1;" parent="1" source="DnkCzbvQFBXvj7n7dTfT-4" target="DnkCzbvQFBXvj7n7dTfT-5" edge="1">
                    <mxGeometry relative="1" as="geometry"/>
                </mxCell>
                <mxCell id="DnkCzbvQFBXvj7n7dTfT-4" value="if (array1[i].Length &amp;lt;= 3)" style="rhombus;whiteSpace=wrap;html=1;" parent="1" vertex="1">
                    <mxGeometry x="277.5" y="350" width="225" height="80" as="geometry"/>
                </mxCell>
                <mxCell id="DnkCzbvQFBXvj7n7dTfT-17" value="" style="edgeStyle=orthogonalEdgeStyle;rounded=0;orthogonalLoop=1;jettySize=auto;html=1;" parent="1" source="DnkCzbvQFBXvj7n7dTfT-5" target="DnkCzbvQFBXvj7n7dTfT-3" edge="1">
                    <mxGeometry relative="1" as="geometry"/>
                </mxCell>
                <mxCell id="DnkCzbvQFBXvj7n7dTfT-5" value="array2[count] = array1[i]&lt;br&gt;count++" style="whiteSpace=wrap;html=1;" parent="1" vertex="1">
                    <mxGeometry x="40" y="225" width="177.5" height="50" as="geometry"/>
                </mxCell>
                <mxCell id="B7fp_Nzf1htRCQnwWERk-4" value="" style="endArrow=classic;html=1;rounded=0;" parent="1" edge="1">
                    <mxGeometry width="50" height="50" relative="1" as="geometry">
                        <mxPoint x="280" y="250" as="sourcePoint"/>
                        <mxPoint x="280" y="250" as="targetPoint"/>
                        <Array as="points">
                            <mxPoint x="280" y="390"/>
                        </Array>
                    </mxGeometry>
                </mxCell>
                <mxCell id="B7fp_Nzf1htRCQnwWERk-6" value="Yes" style="text;html=1;align=center;verticalAlign=middle;resizable=0;points=[];autosize=1;strokeColor=none;fillColor=none;" parent="1" vertex="1">
                    <mxGeometry x="190" y="370" width="40" height="20" as="geometry"/>
                </mxCell>
                <mxCell id="B7fp_Nzf1htRCQnwWERk-10" value="No" style="text;html=1;align=center;verticalAlign=middle;resizable=0;points=[];autosize=1;strokeColor=none;fillColor=none;" parent="1" vertex="1">
                    <mxGeometry x="275" y="350" width="30" height="20" as="geometry"/>
                </mxCell>
            </root>
        </mxGraphModel>
    </diagram>
</mxfile>